<!DOCTYPE svg PUBLIC "-//W3C//DTD SVG 20010904//EN" "http://www.w3.org/TR/2001/REC-SVG-20010904/DTD/svg10.dtd">
<svg version="1.0" xmlns="http://www.w3.org/2000/svg" width="207px" height="240px" viewBox="0 0 2070 2400" preserveAspectRatio="xMidYMid meet">
<g id="layer101" fill="#000000" stroke="none">
 <path d="M900 2304 c-259 -197 -452 -382 -634 -610 -104 -130 -267 -370 -266 -392 0 -4 35 -32 76 -62 142 -103 211 -197 246 -332 l20 -82 -28 -19 c-43 -30 -174 -165 -174 -180 0 -9 39 -18 125 -30 68 -10 153 -27 187 -40 l63 -22 1 -90 c1 -145 46 -265 132 -357 39 -42 106 -88 126 -88 3 0 19 26 35 57 46 91 87 140 143 173 67 38 99 38 166 0 56 -33 97 -82 143 -172 16 -32 32 -58 35 -58 20 0 87 46 126 88 86 92 131 212 132 357 l1 90 63 22 c34 13 119 30 187 40 86 12 125 21 125 30 0 15 -131 150 -174 180 l-28 19 20 82 c35 135 104 229 246 332 41 30 76 58 76 62 1 22 -162 262 -266 392 -185 231 -372 411 -626 603 -76 56 -141 103 -145 102 -4 0 -64 -43 -133 -95z m100 -84 c31 -25 36 -25 71 1 l29 21 69 -51 c71 -53 100 -81 85 -81 -5 -1 -22 -12 -39 -25 l-30 -25 115 -108 114 -108 -16 -57 c-8 -31 -12 -57 -8 -57 5 0 34 35 66 77 l58 77 64 -70 c95 -104 225 -267 302 -380 l68 -100 -73 -57 c-40 -31 -89 -76 -109 -100 -64 -78 -126 -240 -126 -329 0 -21 -1 -38 -3 -38 -2 0 -24 7 -49 15 l-45 16 -6 212 c-4 167 -10 228 -26 289 -37 144 -137 310 -262 438 -74 76 -202 165 -225 156 -36 -14 -142 -94 -195 -148 -88 -90 -155 -183 -209 -293 -69 -140 -79 -193 -87 -442 l-6 -211 -41 -16 c-23 -9 -44 -16 -47 -16 -4 0 -9 28 -12 62 -8 104 -58 226 -124 306 -19 24 -68 68 -108 100 l-74 56 66 96 c113 163 350 450 372 450 4 0 14 -13 24 -29 20 -34 86 -115 97 -119 4 -2 1 22 -8 53 l-16 56 52 52 c28 29 78 75 111 102 33 28 60 55 60 61 1 6 -15 22 -35 36 l-35 26 43 34 c72 57 113 88 118 88 3 0 16 -9 30 -20z m225 -481 c33 -35 77 -86 97 -114 38 -53 112 -195 102 -195 -3 0 -37 9 -75 21 -62 19 -72 25 -94 63 -14 23 -36 53 -50 66 l-25 23 0 -81 c0 -81 0 -82 28 -87 67 -14 184 -46 216 -59 30 -12 35 -21 46 -68 18 -84 30 -213 30 -336 0 -132 12 -126 -127 -62 -106 49 -162 88 -250 174 -73 69 -73 69 -73 123 l0 54 38 -6 c76 -13 102 -25 102 -48 0 -15 16 -34 47 -57 33 -24 60 -57 87 -107 22 -40 42 -71 43 -69 2 2 -4 22 -12 46 -20 57 -19 61 10 54 24 -6 25 -4 19 27 -13 65 -33 98 -82 133 -28 21 -60 55 -75 83 -29 52 -72 108 -64 83 3 -8 15 -39 26 -69 l22 -54 -29 6 c-16 3 -52 9 -81 13 l-51 7 0 289 0 289 58 -39 c31 -22 84 -68 117 -103z m-205 -152 l0 -284 -77 -17 c-43 -9 -104 -27 -135 -40 l-58 -24 5 22 c17 83 29 133 35 145 4 8 27 22 51 32 l44 17 3 82 c2 48 -1 79 -6 76 -25 -15 -105 -149 -127 -212 -24 -70 -56 -306 -43 -320 15 -15 168 109 168 136 0 10 6 22 13 28 9 8 102 32 122 32 3 0 5 -25 5 -56 0 -54 -1 -57 -57 -113 -89 -88 -231 -175 -367 -225 -18 -6 -19 0 -13 191 4 152 10 216 26 274 46 176 182 378 328 488 38 28 71 51 76 51 4 0 7 -127 7 -283z m195 -645 c78 -52 151 -87 310 -151 72 -28 155 -66 185 -83 l55 -32 -63 -8 c-77 -9 -166 -33 -208 -58 l-32 -18 -37 54 c-38 55 -139 154 -177 175 -27 14 -19 2 47 -76 67 -79 99 -136 131 -231 22 -65 25 -90 20 -142 -6 -68 -46 -170 -78 -199 -19 -17 -20 -16 -46 17 -15 19 -37 45 -50 56 l-23 22 20 33 c26 46 34 91 26 147 -10 73 -15 77 -63 53 -22 -11 -74 -47 -116 -81 -42 -33 -78 -60 -81 -60 -3 0 -39 27 -81 60 -64 51 -141 100 -158 100 -2 0 -9 -23 -16 -50 -15 -61 -7 -124 21 -169 l20 -33 -47 -51 c-26 -29 -49 -54 -51 -56 -6 -9 -36 26 -58 70 -36 70 -50 162 -36 231 18 84 81 204 151 286 34 41 60 76 57 78 -15 15 -183 -153 -217 -216 -10 -19 -11 -19 -43 0 -42 25 -131 49 -209 58 l-63 8 55 32 c30 17 113 55 185 83 235 94 339 155 440 258 l49 51 61 -59 c33 -32 87 -77 120 -99z"/>
 </g>
<g id="layer102" fill="#ef3d23" stroke="none">
 <path d="M1232 1209 c3 -30 7 -34 36 -37 24 -2 32 -8 32 -22 0 -19 36 -47 47 -36 14 14 -35 83 -75 105 l-43 23 3 -33z"/>
 </g>

</svg>